<svg xmlns="http://www.w3.org/2000/svg" viewBox="0 0 250 250"><defs><style>.cls-1{fill:#4366ff;}.cls-2{fill:#fff;}</style></defs><title>Asset 15</title><g id="Layer_2" data-name="Layer 2"><g id="Layer_3" data-name="Layer 3"><rect class="cls-1" width="250" height="250"/></g><g id="Layer_4" data-name="Layer 4"><path id="Body" class="cls-2" d="M194.7,99.63l1-.75A29,29,0,0,0,185,47.71a2.24,2.24,0,0,0-2.61,2.87,29,29,0,0,1-3.49,24.51c-.22.35-.42.62-.47.69l0,0s0,0,0,0l0,0a75.5,75.5,0,0,0-52.16-22H125A75.64,75.64,0,0,0,72.5,74.85a28.66,28.66,0,0,1-4.61-15.69,29.09,29.09,0,0,1,1.27-8.55,2.23,2.23,0,0,0-2.62-2.88,29,29,0,0,0-10.89,51,75.81,75.81,0,0,0-6.46,27.11c-.08,1.27-.11,2.54-.11,3.82a76.75,76.75,0,0,0,2,17.21c.54,2.35,1.19,4.63,2,6.89a75.85,75.85,0,0,0,19.46,30.67A46.82,46.82,0,0,0,53,219v7.2a46.76,46.76,0,0,0,4.33,16.36c-.33,2-.6,4.4-.81,7h45.9V230.7l22.74-15.62,12.44,8.54,9.16,6.31v19.59h45.34c-.07-1.33-.15-2.54-.27-3.62a46.42,46.42,0,0,0,5.93-18.38c.16-1.64.25-3.27.25-4.93a46.82,46.82,0,0,0-20.1-38.5,75.81,75.81,0,0,0,19.46-31.51c.61-1.94,1.15-3.88,1.6-5.87a75.7,75.7,0,0,0,1.92-17c0-1.34,0-2.65-.11-4A75.68,75.68,0,0,0,194.7,99.63ZM75.85,142.56A18,18,0,0,1,71,126.27a15.71,15.71,0,0,1,.45-1.7c.18-.57.37-1.11.6-1.65a17.61,17.61,0,0,1,3.83-5.7,17.91,17.91,0,1,1,0,25.34Zm28.52,36.35h-.23a11.41,11.41,0,0,1-9.73-5.81,10.8,10.8,0,0,1-.84-2c-.1-.34-.21-.69-.28-1a11,11,0,0,1-.23-2.24,9.26,9.26,0,0,1,.11-1.49,9.42,9.42,0,0,1,.3-1.44c.24.09.46.17.7.24A85.68,85.68,0,0,0,115,169.84,11.11,11.11,0,0,1,104.37,178.91Zm33.32-9.57c0,.38,0,.75-.06,1.12v0a11.13,11.13,0,0,1-.18,1.11h0a8.58,8.58,0,0,1-.28,1.08v0c-.11.35-.24.7-.38,1,0,0,0,0,0,0-.15.34-.31.69-.48,1a12.65,12.65,0,0,1-1.94,2.75l-.39.4a10.84,10.84,0,0,1-7.52,3.21,11.06,11.06,0,0,1-5.82-1.66,2.66,2.66,0,0,1-.33-.21h0l-.36-.27a9.9,9.9,0,0,1-1.26-1.07h0a.17.17,0,0,0-.06-.06,7.88,7.88,0,0,1-.91-1.08,7.07,7.07,0,0,1-.72-1c-.07-.12-.13-.23-.21-.35a11,11,0,0,1-1.36-5.22h0v0c0-.08,0-.18.08-.26l2,.17c2,.15,4.08.2,6.15.2,2.57,0,5.16-.07,7.74-.25,2.12-.13,4.22-.34,6.26-.67h0l0,0Zm11.09,8.46a11.72,11.72,0,0,1-7.09-2.37,8.22,8.22,0,0,1-.9-.76,11.22,11.22,0,0,1-2.11-2.78,10.29,10.29,0,0,1-1-2.5v-.08h0a90,90,0,0,0,21.39-6.54c.15.4.27.81.39,1.21s.19.89.25,1.35a10.58,10.58,0,0,1,.09,1.39A11.08,11.08,0,0,1,148.78,177.8Zm27.88-37.38a17.88,17.88,0,0,1-27.13,2.13,16.77,16.77,0,0,1-2-2.43,17.67,17.67,0,0,1-3.24-10.22,17.92,17.92,0,1,1,32.4,10.52Z"/></g></g></svg>