<?xml version="1.0" encoding="UTF-8"?>
<svg width="24px" height="23px" viewBox="0 0 24 23" version="1.1" xmlns="http://www.w3.org/2000/svg" xmlns:xlink="http://www.w3.org/1999/xlink">
    <!-- Generator: Sketch 53.2 (72643) - https://sketchapp.com -->
    <title>3J</title>
    <desc>Created with Sketch.</desc>
    <g id="HighEnd" stroke="none" stroke-width="1" fill="none" fill-rule="evenodd">
        <g id="TrailerDetailSelected" transform="translate(-298.000000, -54.000000)" fill="#E0E0E0">
            <g id="3J" transform="translate(298.000000, 54.000000)">
                <path d="M17.6376585,0.435789474 C14.8887805,0.441842105 13.2339512,1.86421053 12.3313171,3.34710526 C11.4076098,1.86421053 9.71356098,0.441842105 6.90029268,0.435789474 C3.17619512,0.435789474 0.580682927,4.00684211 0.580682927,7.20868421 C0.580682927,10.2047368 2.10263415,11.9418421 4.86614634,15.0831579 C7.46809756,18.0489474 11.6651707,22.5823684 11.7073171,22.6307895 C11.7155122,22.6368421 11.724878,22.6428947 11.7330732,22.6489474 C11.7371707,22.655 11.7383415,22.6610526 11.7430244,22.6671053 C11.7500488,22.6731579 11.7594146,22.6731579 11.7670244,22.6792105 C11.8437073,22.7518421 11.9274146,22.8063158 12.0181463,22.8426316 C12.0263415,22.8486842 12.0357073,22.8486842 12.0439024,22.8486842 C12.1399024,22.885 12.24,22.9092105 12.3412683,22.9092105 L12.3418537,22.9092105 C12.4454634,22.9092105 12.5479024,22.885 12.6456585,22.8486842 C12.6538537,22.8486842 12.6620488,22.8426316 12.6702439,22.8426316 C12.7627317,22.8002632 12.8487805,22.7457895 12.9266341,22.6731579 C12.9336585,22.6671053 12.942439,22.6610526 12.948878,22.655 C12.9529756,22.655 12.9541463,22.6489474 12.9582439,22.6428947 C12.9658537,22.6368421 12.9758049,22.6307895 12.984,22.6186842 C13.0243902,22.5763158 17.1108293,18.0428947 19.643122,15.0771053 C22.3317073,11.9297368 23.8126829,10.1986842 23.8126829,7.20868421 C23.8126829,4.00684211 21.276878,0.435789474 17.6376585,0.435789474 L17.6376585,0.435789474 Z"></path>
            </g>
        </g>
    </g>
</svg>