<?xml version="1.0" encoding="UTF-8"?>
<svg width="16px" height="23px" viewBox="0 0 16 23" version="1.1" xmlns="http://www.w3.org/2000/svg" xmlns:xlink="http://www.w3.org/1999/xlink">
    <!-- Generator: Sketch 53.2 (72643) - https://sketchapp.com -->
    <title>Fill 1</title>
    <desc>Created with Sketch.</desc>
    <g id="HighEnd" stroke="none" stroke-width="1" fill="none" fill-rule="evenodd">
        <g id="TrailerDetailSelected" transform="translate(-338.000000, -54.000000)" fill="#DADADA">
            <path d="M349.402275,69.1033691 C348.827031,69.1033691 348.282881,69.235977 347.798328,69.4717818 L344.993624,66.6792761 C345.199882,66.2231462 345.315449,65.7174818 345.315449,65.1844703 C345.315449,64.6519747 345.199882,64.1468264 344.993624,63.6906965 L347.786927,60.9095424 C348.273553,61.148443 348.821849,61.2841468 349.402275,61.2841468 C351.422368,61.2841468 353.06,59.6536372 353.06,57.6418154 C353.06,55.6310256 351.422368,54 349.402275,54 C347.382183,54 345.744551,55.6310256 345.744551,57.6418154 C345.744551,58.1289044 345.841461,58.594322 346.016107,59.0189769 L343.158024,61.8641129 C342.699902,61.6582353 342.193065,61.5431708 341.658243,61.5431708 C339.637632,61.5431708 338,63.1736804 338,65.1844703 C338,67.1962921 339.637632,68.8268017 341.658243,68.8268017 C342.193065,68.8268017 342.70042,68.7117372 343.158024,68.5063756 L346.02129,71.3561555 C345.843534,71.7844223 345.744551,72.2529358 345.744551,72.7457006 C345.744551,74.7564904 347.382183,76.387 349.402275,76.387 C351.422368,76.387 353.06,74.7564904 353.06,72.7457006 C353.06,70.7338787 351.422368,69.1033691 349.402275,69.1033691" id="Fill-1"></path>
        </g>
    </g>
</svg>